<?xml version="1.0" encoding="UTF-8"?>
<svg id="Layer_1" xmlns="http://www.w3.org/2000/svg" version="1.1" viewBox="0 0 486 504">
  <!-- Generator: Adobe Illustrator 29.8.2, SVG Export Plug-In . SVG Version: 2.1.1 Build 3)  -->
  <defs>
    <style>
      .st0 {
        display: none;
        stroke: #231f20;
        stroke-width: .75px;
      }

      .st0, .st1 {
        stroke-miterlimit: 10;
      }

      .st0, .st2 {
        fill: #00aeef;
      }

      .st3 {
        fill: #fff;
      }

      .st1 {
        fill: none;
        stroke: #00aeef;
        stroke-width: 3px;
      }
    </style>
  </defs>
  <rect class="st2" x="9" y="9" width="468" height="486"/>
  <path class="st3" d="M46.11,111.71v78.66h16.62v16.62H9v-16.62h16.92V25.62H9V9h53.73v16.62h-16.62v68.87h95.88V25.62h-16.33V9h52.54v16.62h-16.03v164.75h16.03v16.62h-52.54v-16.62h16.33v-78.66H46.11Z"/>
  <path class="st3" d="M460.08,478.38h16.92v16.62h-56.4v-16.62h18.11l-17.81-48.39h-75.1l-12.17,33.84c-1.19,3.86-1.78,5.64-1.78,7.72,0,4.75,2.67,6.83,8.61,6.83h7.72v16.62h-53.73v-16.62h5.64c9.5,0,14.54-5.05,19.59-18.7l52.54-146.05h-16.92v-16.62h36.81l67.98,181.38ZM382.31,326.39l-31.76,89.95h65.31l-33.54-89.95Z"/>
  <g>
    <path class="st3" d="M303.83,232.99v15.5c12.72,0,25.43.02,38.15,0,.05,0,.02-14.05.02-15.5h-38.17Z"/>
    <g>
      <path class="st3" d="M297.79,297.46c-.07.15-56.45-67.66-56.45-67.66,30.81-15.4,43.45-34.1,43.45-49.5,0-23.1-17.6-36.3-41.8-36.3-26.4,0-48.4,16.5-48.4,42.62,0,17.32,10.45,33.28,26.13,51.7-18.97,12.1-44,26.4-44,55.55s20.62,48.13,52.25,48.13c13.75,0,36.03-4.39,56.65-25.02l18.98,22.28h37.4v-2.75c-10.18-1.38-15.95-6.05-23.65-15.13,0,0-18.69-21.57-18.6-21.74M216.6,176.18c0-12.38,8.8-29.15,28.32-29.15s28.33,14.03,28.33,33.55c0,14.3-7.7,31.9-33.83,47.02-15.67-19.53-22.82-31.35-22.82-51.42ZM237.77,335.4c-26.13,0-38.5-20.07-38.5-47.85,0-17.88,11-37.68,23.37-46.75l61.06,73.7c-12.93,14.3-33.28,20.9-45.93,20.9Z"/>
      <path class="st3" d="M286.83,313.64s-.09,0-.13,0c-.87-.09-1.78-.81-1.73-2.16l3.16.1c0-.19-.12-.58-.49-.85-.38-.28-.8-.27-.94-.21,3.17-1.13,28.74-32.21,35.29-68.63l3.11.56c-6.48,36.01-32.67,71.2-38.27,71.2Z"/>
    </g>
  </g>
  <path class="st0" d="M838.33,150.6"/>
  <rect class="st1" width="486" height="504"/>
</svg>